<?xml version="1.0" encoding="utf-8"?>
<!-- Generator: Adobe Illustrator 24.0.3, SVG Export Plug-In . SVG Version: 6.00 Build 0)  -->
<svg version="1.1" xmlns="http://www.w3.org/2000/svg" xmlns:xlink="http://www.w3.org/1999/xlink" x="0px" y="0px"
	 viewBox="0 0 1000 1250" style="enable-background:new 0 0 1000 1250;" xml:space="preserve">
<style type="text/css">
	.st0{display:none;}
</style>
<g id="Layer_2" class="st0">
</g>
<g id="Layer_1">
	<g>
		<path d="M799.7,515c-15.7,0-30.8,1.9-45.2,5.9l-14.5-42l-0.9-4.4l-6.6-30.9v-1.2l-4.7-24.2l60.6,0.1c6.7,0,12.1-3.3,12.1-10
			s-5.4-10.1-12.1-10.1l-45.7-0.1c13.6-14.9,14-38,0.2-53.2L604.3,191.6l-12.2-10.3c-26.8-18.9-63.8-12.5-82.7,14.3L403.4,346
			c-14.4,20.4-14.1,46.6-1.4,66.4c1.8,3.1,3.9,5.9,6.5,8.5l19,18.7l1.5,5.2l-46,85.3c-21.3-9.7-45-15-70-15
			c-94.1-0.2-170.7,76.3-170.9,170.3c0,23.9,4.9,46.8,13.8,67.5l-23.7,12.8c-10-11.5-24.8-18.9-41.3-18.9
			c-30.2,0-54.7,24.5-54.7,54.7s24.5,54.7,54.7,54.7s54.7-24.5,54.7-54.7c0-5.1-0.7-10-2-14.6l23.4-12.7c29.9,49,83.9,81.9,145.4,82
			c85.7,0.2,157-63.2,169.1-145.6l14.9,1.1c4.6,9.9,13.1,17.8,24.3,21.3c3.7,1.1,7.5,1.7,11.2,1.8c17.1,0.2,33-10.8,38.3-28
			l19.6-63.9L723.4,505l8.4,24c-60.4,26.2-102.8,86.3-102.9,156.2c-0.2,94.1,76.2,170.7,170.3,170.9
			c94.1,0.2,170.8-76.2,170.9-170.3C970.2,592,893.8,515.2,799.7,515z M124,801.7c0,18.3-14.8,33.1-33.1,33.1S57.7,820,57.7,801.7
			s14.8-33.1,33.1-33.1c8.2,0,15.8,3,21.5,8l-27.7,15c-4.6,2.5-7,7.6-6.2,12.6c0.2,1.3,0.6,2.6,1.3,3.8c3.2,5.9,10.5,8,16.4,4.9
			l27.5-14.9C123.9,799.1,124,800.4,124,801.7z M587.4,291L684,398c4.7,5.2,10.5,8.9,16.7,11c0,0.3,0.1,0.6,0.2,0.9l4.7,18.3
			l-176.7-0.3l-22.4-22L587.4,291z M170.3,685.6c0.1-78.5,64.1-142.3,142.6-142.1c20.1,0,39.3,4.3,56.6,11.9L307,671.1l-126.2,68.4
			C174,722.8,170.3,704.7,170.3,685.6z M312.5,828.3c-50.9-0.1-95.6-27-120.7-67.3l117.4-63.6c0.9,0.3,1.8,0.4,2.7,0.5l141.5,10.8
			C442.3,776.5,383.3,828.4,312.5,828.3z M332.2,675.3l58.6-108.4c38.4,25.3,63.8,68.6,64.3,117.7L332.2,675.3z M494.4,683.7
			c-0.4,1.3-0.7,2.6-1,3.8l-11.6-0.8c0-0.2,0-0.3,0-0.5c0.1-60.5-30.9-113.8-78.5-144.2l35.1-63.9l57.8,199.6L494.4,683.7z
			 M509.7,633.9l-46.6-159.7l73.5,72.1L509.7,633.9z M605.7,591.2l13.7-44.6c4.4-14.2,0.4-29.5-10.1-39.9L559.6,458l151.2,0.3
			l4.3,20.7L605.7,591.2z M799.1,828.1C720.6,828,656.8,764,657,685.5c0.1-57.6,34.6-107.3,84-129.6l47,134.8
			c1.7,5,6.4,8.1,11.4,8.1c1.3,0,2.7-0.2,4-0.7c6.3-2.2,9.6-9.1,7.4-15.4l-47-134.9c11.4-3,23.5-4.6,35.9-4.5
			c78.5,0.1,142.3,64.2,142.1,142.7C941.6,764.5,877.6,828.3,799.1,828.1z"/>
		<circle cx="638.7" cy="119.6" r="63.3"/>
	</g>
</g>
</svg>
